Coordinates
version=1
nRows=6
nColumns=63
inDegrees=yes

Units are S.I. units (second, meters, Newtons, ...)
If the header above contains a line with 'inDegrees', this indicates whether rotational values are in degrees (yes) or radians (no).

endheader
time	pelvis_tilt	pelvis_list	pelvis_rotation	pelvis_tx	pelvis_ty	pelvis_tz	hip_flexion_r	hip_adduction_r	hip_rotation_r	knee_angle_r	knee_angle_r_beta	ankle_angle_r	subtalar_angle_r	mtp_angle_r	hip_flexion_l	hip_adduction_l	hip_rotation_l	knee_angle_l	knee_angle_l_beta	ankle_angle_l	subtalar_angle_l	mtp_angle_l	L5_S1_Flex_Ext	L5_S1_Lat_Bending	L5_S1_axial_rotation	L4_L5_Flex_Ext	L4_L5_Lat_Bending	L4_L5_axial_rotation	L3_L4_Flex_Ext	L3_L4_Lat_Bending	L3_L4_axial_rotation	L2_L3_Flex_Ext	L2_L3_Lat_Bending	L2_L3_axial_rotation	L1_L2_Flex_Ext	L1_L2_Lat_Bending	L1_L2_axial_rotation	L1_T12_Flex_Ext	L1_T12_Lat_Bending	L1_T12_axial_rotation	Abs_r3	Abs_r2	Abs_r1	Abs_t1	Abs_t2	neck_flexion	neck_bending	neck_rotation	arm_flex_r	arm_add_r	arm_rot_r	elbow_flex_r	pro_sup_r	wrist_flex_r	wrist_dev_r	arm_flex_l	arm_add_l	arm_rot_l	elbow_flex_l	pro_sup_l	wrist_flex_l	wrist_dev_l
      2.60000000	     -3.47925688	    -11.97990627	     99.86248291	      0.10434993	      1.04780891	      0.47659063	      7.62175366	     -4.60707610	    -10.18696683	      8.74377662	      0.15260769	     33.37477004	     14.69672477	      0.00000000	     10.05359604	      3.05968858	     -3.01218515	     12.65959044	      0.22095154	     29.00082740	      7.41007799	      0.00000000	     -0.02313535	     -0.74529578	     -0.17305897	     -0.04296466	     -0.99124338	     -0.18387515	     -0.03800907	     -1.81211215	     -0.18387515	     -0.02644139	     -1.81211215	     -0.15142660	     -0.02148349	     -1.51980715	     -0.14061041	     -0.01321954	     -1.15446316	     -0.12979423	     -0.16525349	     -8.43093490	     -0.96250206	      0.00000000	      0.00000000	      9.10122618	     12.33402342	      0.41770500	     96.23252305	    -32.33829028	    153.99587005	     11.09114811	     17.73763313	     -8.82260839	     11.85289091	    105.58669286	    -38.43703729	    222.05444783	      0.93002691	     36.21148457	    -22.05620146	     -6.85505916
      2.62500000	     -3.16470354	    -12.56055579	     99.90641815	      0.10364922	      1.04682180	      0.47445363	      8.05833878	     -4.39729626	    -10.16093954	      8.48857763	      0.14815363	     33.19231690	     14.68784532	      0.00000000	     10.47857404	      2.87707616	     -2.97667649	     12.56254239	      0.21925773	     28.96915152	      7.23503350	      0.00000000	     -0.05754331	     -0.69942973	     -0.36915182	     -0.10686368	     -0.93024154	     -0.39222381	     -0.09453791	     -1.70059344	     -0.39222381	     -0.06576625	     -1.70059344	     -0.32300784	     -0.05343472	     -1.42627710	     -0.29993586	     -0.03288025	     -1.08341665	     -0.27686387	     -0.41102612	     -7.91208898	     -2.05311169	      0.00000000	      0.00000000	      9.63813743	     12.75626421	      1.88160626	     95.53767738	    -40.61757433	    150.47326327	     12.95517020	     17.55296766	     -4.62110964	     17.22291830	    105.69901565	    -49.27203987	    222.09705198	      2.23275018	     37.39898755	    -18.52074169	      1.98192036
      2.65000000	     -2.68332485	    -13.64450548	    100.02463809	      0.10168434	      1.04482311	      0.47011600	      8.76469552	     -4.14162029	    -10.04455177	      8.09047459	      0.14120542	     32.92427283	     14.50815635	      0.00000000	     11.24273318	      2.69534634	     -2.77168692	     12.32753683	      0.21515611	     29.08255514	      7.10791735	      0.00000000	     -0.01250667	     -0.67940790	     -0.42890010	     -0.02322613	     -0.90361250	     -0.45570636	     -0.02054720	     -1.65191236	     -0.45570636	     -0.01429387	     -1.65191236	     -0.37528759	     -0.01161369	     -1.38544858	     -0.34848133	     -0.00714631	     -1.05240283	     -0.32167508	     -0.08933387	     -7.68559800	     -2.38541369	      0.00000000	      0.00000000	     11.01426011	     13.70254222	      0.69844466	     92.70220362	    -49.65644389	    145.03544213	     13.96529745	     12.66142027	     -2.67766639	     21.66881623	    107.54655052	    -57.18693782	    213.35436018	      7.04415620	     29.45808582	    -14.86782651	      8.65154688
      2.67500000	     -2.33590645	    -14.52274510	    100.32992761	      0.09959673	      1.04331034	      0.46520538	      9.07583206	     -3.97980572	     -9.67134543	      7.63573508	      0.13326872	     32.41115642	     13.71178192	      0.00000000	     11.61672291	      2.66068939	     -2.17354243	     11.77659466	      0.20554035	     28.99708498	      6.95975492	      0.00000000	      0.02378850	     -0.68609674	     -0.43665073	      0.04417762	     -0.91250867	     -0.46394140	      0.03908212	     -1.66817562	     -0.46394140	      0.02718787	     -1.66817562	     -0.38206939	      0.02209000	     -1.39908848	     -0.35477872	      0.01359275	     -1.06276385	     -0.32748805	      0.16991886	     -7.76126357	     -2.42852035	      0.00000000	      0.00000000	     12.11748853	     14.98105479	     -1.05666233	     84.73676137	    -58.81923808	    121.73040017	     14.40059781	     18.57385840	     -3.58072768	     24.84460322	    109.82391051	    -64.96097074	    197.73532662	      9.77047700	     25.20038182	    -13.23944625	      9.63288130
      2.70000000	     -2.04080305	    -15.03206019	    100.43194300	      0.09732619	      1.04200420	      0.46075568	      9.04636549	     -3.81197242	     -8.92479428	      7.25370068	      0.12660096	     31.78333769	     12.57453070	      0.00000000	     11.64663116	      2.64587086	     -1.46271920	     11.27852554	      0.19684741	     28.93339963	      6.38341323	      0.00000000	      0.03081335	     -0.66981488	     -0.38072146	      0.05722347	     -0.89085378	     -0.40451655	      0.05062325	     -1.62858789	     -0.40451655	      0.03521657	     -1.62858789	     -0.33313128	      0.02861327	     -1.36588649	     -0.30933619	      0.01760675	     -1.03754324	     -0.28554110	      0.22009666	     -7.57707984	     -2.11745856	      0.00000000	      0.00000000	     12.83353249	     15.46986868	     -2.39889324	     76.75580671	    -65.62731443	    115.99259015	     15.61440168	     11.83479155	     -4.14973362	     24.79837643	    107.99655045	    -71.80260506	    191.54755214	      9.96892505	     19.13288720	    -11.44521318	      8.34557615
      2.72500000	     -1.91418481	    -15.34770032	    100.42693606	      0.09555514	      1.04060668	      0.45688574	      8.86444738	     -3.72473958	     -7.45923012	      6.95093073	      0.12131663	     31.12086988	     10.56409541	      0.00000000	     11.48125097	      2.76411313	     -0.43316136	     10.76323342	      0.18785386	     28.76315229	      5.21487847	      0.00000000	      0.02177753	     -0.66362039	     -0.30425831	      0.04044304	     -0.88261511	     -0.32327446	      0.03577830	     -1.61352661	     -0.32327446	      0.02488953	     -1.61352661	     -0.26622603	      0.02022261	     -1.35325469	     -0.24720988	      0.01244368	     -1.02794798	     -0.22819374	      0.15555469	     -7.50700653	     -1.69219347	      0.00000000	      0.00000000	     13.82985167	     15.85343194	     -3.38145359	     62.96876111	    -70.92074159	    100.23332987	     16.79380562	     14.24839111	     -4.06854941	     22.83625519	    100.94295987	    -77.32534964	    188.93241804	      9.15849522	     13.63840017	     -9.13145824	      6.48684721
